<svg xmlns="http://www.w3.org/2000/svg" xmlns:xlink="http://www.w3.org/1999/xlink" width="176" height="176" viewBox="0 0 176 176"><defs><style>.a{fill:#0845a7;}.b{clip-path:url(#a);}.c{opacity:0.15;}.d{fill:#fff;}</style><clipPath id="a"><rect class="a" width="176" height="176" rx="4" transform="translate(709 2896)"/></clipPath></defs><g class="b" transform="translate(-709 -2896)"><g class="c" transform="translate(708.8 2896.3)"><g transform="translate(54.061 208.614)"><rect class="d" width="7.73" height="7.73"/></g><g transform="translate(34.736 208.614)"><rect class="d" width="7.73" height="7.73"/></g><g transform="translate(54.061 185.424)"><rect class="d" width="7.73" height="7.73"/></g><g transform="translate(34.736 185.424)"><rect class="d" width="7.73" height="7.73"/></g><g transform="translate(54.061 156.233)"><rect class="d" width="7.73" height="7.73"/></g><g transform="translate(34.736 162.233)"><rect class="d" width="7.73" height="7.73" transform="translate(0 -6)"/></g><g transform="translate(54.061 136.092)"><rect class="d" width="7.73" height="7.73"/></g><g transform="translate(34.736 136.092)"><rect class="d" width="7.73" height="7.73"/></g><g transform="translate(54.061 115.902)"><rect class="d" width="7.73" height="7.73"/></g><g transform="translate(34.736 115.902)"><rect class="d" width="7.73" height="7.73"/></g><g transform="translate(0)"><path class="d" d="M7.681,231.755V102.127L69.472,65.062V0H231.755V231.755h7.73v7.73H0v-7.73Zm127.448.05h30.92V185.473h-30.92Zm-57.877,0h50.2V177.694h46.331v54.061h50.246V7.73H77.252V231.8Zm-7.73,0V74.08L15.46,106.537V231.8Z"/></g><g transform="translate(185.374 185.424)"><path class="d" d="M77.72,374.2v30.92H46.8V374.2ZM54.53,397.39H69.99V381.93H54.53v15.46Z" transform="translate(-46.8 -374.2)"/></g><g transform="translate(84.932 185.424)"><path class="d" d="M280.42,374.2v30.92H249.5V374.2Zm-23.19,23.19h15.46V381.93H257.23Z" transform="translate(-249.5 -374.2)"/></g><g transform="translate(185.374 131.313)"><path class="d" d="M77.72,265v30.92H46.8V265ZM54.53,288.24H69.99V272.78H54.53v15.46Z" transform="translate(-46.8 -265)"/></g><g transform="translate(84.932 131.313)"><path class="d" d="M280.42,265v30.92H249.5V265Zm-23.19,23.24h15.46V272.78H257.23Z" transform="translate(-249.5 -265)"/></g><g transform="translate(185.374 77.252)"><path class="d" d="M77.72,155.9v30.92H46.8V155.9ZM54.53,179.09H69.99V163.63H54.53v15.46Z" transform="translate(-46.8 -155.9)"/></g><g transform="translate(84.932 77.252)"><path class="d" d="M280.42,155.9v30.92H249.5V155.9Zm-23.19,23.19h15.46V163.63H257.23Z" transform="translate(-249.5 -155.9)"/></g><g transform="translate(185.374 23.19)"><path class="d" d="M77.72,46.8V77.72H46.8V46.8ZM54.53,69.99H69.99V54.53H54.53V69.99Z" transform="translate(-46.8 -46.8)"/></g><g transform="translate(84.932 23.19)"><path class="d" d="M280.42,46.8V77.72H249.5V46.8ZM257.23,69.99h15.46V54.53H257.23Z" transform="translate(-249.5 -46.8)"/></g><g transform="translate(135.128 131.313)"><path class="d" d="M179.12,265v30.92H148.2V265ZM155.98,288.24h15.46V272.78H155.98Z" transform="translate(-148.2 -265)"/></g><g transform="translate(135.128 77.252)"><path class="d" d="M179.12,155.9v30.92H148.2V155.9ZM155.98,179.09h15.46V163.63H155.98Z" transform="translate(-148.2 -155.9)"/></g><g transform="translate(135.128 23.19)"><path class="d" d="M179.12,46.8V77.72H148.2V46.8ZM155.98,69.99h15.46V54.53H155.98Z" transform="translate(-148.2 -46.8)"/></g></g></g></svg>