<svg xmlns="http://www.w3.org/2000/svg" width="47.022" height="50" viewBox="0 0 47.022 50"><defs><style>.a{fill:#34a1fe;}.b{fill:#0845a7;}</style></defs><g transform="translate(-15.25 0)"><g transform="translate(15.396 -0.001)"><g transform="translate(0 0)"><path class="a" d="M60.7,23.707V8.422a1.439,1.439,0,0,0-.156-.632,1.386,1.386,0,0,0,.156-.467,1.466,1.466,0,0,0-1.063-1.409L39.125.055a1.475,1.475,0,0,0-.8,0L17.813,5.915a1.465,1.465,0,0,0,0,2.818l7.726,2.207v1.734a4.343,4.343,0,0,0,2.358,3.9,25.432,25.432,0,0,0,21.652,0,4.344,4.344,0,0,0,2.358-3.9V10.94l5.859-1.674V23.707a4.388,4.388,0,0,0-2.93,4.125v2.93A1.464,1.464,0,0,0,56.3,32.226H62.16a1.464,1.464,0,0,0,1.465-1.465v-2.93A4.388,4.388,0,0,0,60.7,23.707Z" transform="translate(-16.75 0.001)"/></g></g><g transform="translate(24.126 18.728)"><g transform="translate(0)"><path class="b" d="M131.352,192.457a27.928,27.928,0,0,1-24.236,0,6.771,6.771,0,0,1-.977-.673,14.778,14.778,0,0,0,7.159,12.038s2.056.972,2.7,1.154l0,0a11.741,11.741,0,0,0,3.237.505,11.986,11.986,0,0,0,3.963-.747c.675-.24,1.97-.9,1.97-.9a14.778,14.778,0,0,0,7.163-12.041A6.791,6.791,0,0,1,131.352,192.457Z" transform="translate(-106.139 -191.783)"/></g></g><g transform="translate(33.798 34.902)"><g transform="translate(0)"><path class="b" d="M208.607,357.847a14.532,14.532,0,0,1-3.425-.45l3.425,5.137,3.405-5.132A14.539,14.539,0,0,1,208.607,357.847Z" transform="translate(-205.182 -357.397)"/></g></g><g transform="translate(38.687 32.724)"><path class="b" d="M262.217,335.1c-.026.017-.055.03-.081.047l-1.232,1.848c0,.068-5.617,8.469-5.654,8.525v6.856h19.043a1.464,1.464,0,0,0,1.465-1.465A16.066,16.066,0,0,0,262.217,335.1Zm3.287,11.416h-2.93a1.465,1.465,0,0,1,0-2.93h2.93a1.465,1.465,0,0,1,0,2.93Z" transform="translate(-255.25 -335.096)"/></g><g transform="translate(15.25 32.711)"><g transform="translate(0)"><path class="b" d="M28.845,335c-.024-.016-.05-.027-.074-.043A16.08,16.08,0,0,0,15.25,350.785a1.464,1.464,0,0,0,1.465,1.465H35.758v-6.856C29.119,335.419,30.474,337.456,28.845,335Z" transform="translate(-15.25 -334.961)"/></g></g></g></svg>