<svg xmlns="http://www.w3.org/2000/svg" width="50" height="50" viewBox="0 0 50 50"><defs><style>.a{fill:#0845a7;}.b{fill:#34a1fe;}</style></defs><g transform="translate(0 0.001)"><path class="a" d="M193.877,182.679a7.25,7.25,0,1,0,0,10.251A7.252,7.252,0,0,0,193.877,182.679Zm0,0" transform="translate(-163.774 -162.924)"/><path class="a" d="M5.606,11.371a5.581,5.581,0,0,0,2.723-.705,1.54,1.54,0,0,0,.141.164l8.117,8.114a10.481,10.481,0,0,1,2.185-2.216l-8.1-8.1a1.524,1.524,0,0,0-.164-.14,5.606,5.606,0,1,0-4.9,2.882Zm0,0" transform="translate(0 -0.149)"/><path class="a" d="M331.315,325.9a5.584,5.584,0,0,0-2.723.705,1.584,1.584,0,0,0-.141-.164l-8.161-8.159a10.5,10.5,0,0,1-2.216,2.185l8.177,8.174a1.526,1.526,0,0,0,.164.14,5.606,5.606,0,1,0,4.9-2.882Zm0,0" transform="translate(-287.012 -287.203)"/><path class="b" d="M220.883,6.881a1.549,1.549,0,0,0-.059.419v7.346a10.5,10.5,0,0,1,3.112-.021V7.3a1.575,1.575,0,0,0-.039-.344,3.628,3.628,0,1,0-3.014-.075Zm0,0" transform="translate(-197.475)"/><path class="b" d="M224.019,367.445a1.558,1.558,0,0,0,.058-.416v-7.454a10.5,10.5,0,0,1-3.112.021v7.433a1.555,1.555,0,0,0,.048.377,3.622,3.622,0,1,0,3.006.039Zm0,0" transform="translate(-197.475 -324.46)"/><path class="a" d="M318.41,16.648a10.551,10.551,0,0,1,2.208,2.193l8.092-8.09a1.53,1.53,0,0,0,.124-.141,5.6,5.6,0,1,0-2.152-2.206,1.536,1.536,0,0,0-.172.146Zm0,0" transform="translate(-287.315 -0.132)"/><path class="a" d="M18.918,320.76a10.487,10.487,0,0,1-2.224-2.177L8.47,326.8a1.541,1.541,0,0,0-.141.164,5.6,5.6,0,1,0,2.177,2.177,1.528,1.528,0,0,0,.164-.14Zm0,0" transform="translate(0 -287.471)"/><path class="b" d="M368.072,223.455a1.541,1.541,0,0,0,.335-.037,3.624,3.624,0,1,0-.046-3.047,1.571,1.571,0,0,0-.289-.028h-7.536a10.5,10.5,0,0,1-.032,3.112Zm0,0" transform="translate(-325.298 -196.911)"/><path class="b" d="M7.221,220.343a1.55,1.55,0,0,0-.284.027,3.624,3.624,0,1,0-.046,3.049,1.567,1.567,0,0,0,.33.036h7.524a10.5,10.5,0,0,1-.032-3.112Zm0,0" transform="translate(0 -196.911)"/></g></svg>