<svg xmlns="http://www.w3.org/2000/svg" width="50" height="50" viewBox="0 0 50 50"><defs><style>.a{fill:#34a1fe;}.b{fill:#0845a7;}</style></defs><g transform="translate(41.211 20.605)"><rect class="a" width="8.789" height="17.578"/></g><g transform="translate(41.211 41.113)"><path class="b" d="M422,421v1.465a4.395,4.395,0,0,0,8.789,0V421Z" transform="translate(-422 -421)"/></g><g transform="translate(41.211 8.952)"><path class="b" d="M430.326,97.652,427.7,92.411a1.525,1.525,0,0,0-2.621,0l-2.621,5.241A4.416,4.416,0,0,0,422,99.617v.774h8.789v-.774A4.416,4.416,0,0,0,430.326,97.652Z" transform="translate(-422 -91.667)"/></g><g transform="translate(8.789)"><path class="a" d="M106.113,2.93H104.4a4.4,4.4,0,0,0-8.288,0H94.395A4.4,4.4,0,0,0,90,7.324V8.789h20.508V7.324A4.4,4.4,0,0,0,106.113,2.93Z" transform="translate(-90)"/></g><g transform="translate(0 5.859)"><path class="b" d="M33.691,60H32.227v4.395a1.464,1.464,0,0,1-1.465,1.465H7.324a1.464,1.464,0,0,1-1.465-1.465V60H4.395A4.4,4.4,0,0,0,0,64.395V99.746a4.4,4.4,0,0,0,4.395,4.395h29.3a4.4,4.4,0,0,0,4.395-4.395V64.395A4.4,4.4,0,0,0,33.691,60ZM17.149,91.993,11.29,97.852a1.464,1.464,0,0,1-2.071,0l-2.93-2.93A1.465,1.465,0,0,1,8.36,92.851l1.894,1.894,4.824-4.824a1.465,1.465,0,1,1,2.071,2.071Zm0-10.352L11.29,87.5a1.464,1.464,0,0,1-2.071,0l-2.93-2.93A1.465,1.465,0,0,1,8.36,82.5l1.894,1.894,4.824-4.824a1.465,1.465,0,1,1,2.071,2.071Zm0-10.254L11.29,77.247a1.464,1.464,0,0,1-2.071,0l-2.93-2.93A1.465,1.465,0,0,1,8.36,72.246l1.894,1.894,4.824-4.824a1.465,1.465,0,1,1,2.071,2.071ZM30.762,95.352H21.973a1.465,1.465,0,0,1,0-2.93h8.789a1.465,1.465,0,0,1,0,2.93Zm0-10.352H21.973a1.465,1.465,0,0,1,0-2.93h8.789a1.465,1.465,0,0,1,0,2.93Zm0-10.254H21.973a1.465,1.465,0,0,1,0-2.93h8.789a1.465,1.465,0,0,1,0,2.93Z" transform="translate(0 -60)"/></g></svg>