<svg xmlns="http://www.w3.org/2000/svg" width="100" height="52" viewBox="0 0 100 52"><defs><style>.a{fill:#34a1fe;}</style></defs><g transform="translate(-700 -560)"><path class="a" d="M2,0A2,2,0,1,1,0,2,2,2,0,0,1,2,0Z" transform="translate(800 560) rotate(90)"/><path class="a" d="M2,0A2,2,0,1,1,0,2,2,2,0,0,1,2,0Z" transform="translate(800 576) rotate(90)"/><path class="a" d="M2,0A2,2,0,1,1,0,2,2,2,0,0,1,2,0Z" transform="translate(800 592) rotate(90)"/><path class="a" d="M2,0A2,2,0,1,1,0,2,2,2,0,0,1,2,0Z" transform="translate(800 608) rotate(90)"/><path class="a" d="M2,0A2,2,0,1,1,0,2,2,2,0,0,1,2,0Z" transform="translate(784 560) rotate(90)"/><path class="a" d="M2,0A2,2,0,1,1,0,2,2,2,0,0,1,2,0Z" transform="translate(784 576) rotate(90)"/><path class="a" d="M2,0A2,2,0,1,1,0,2,2,2,0,0,1,2,0Z" transform="translate(784 592) rotate(90)"/><path class="a" d="M2,0A2,2,0,1,1,0,2,2,2,0,0,1,2,0Z" transform="translate(784 608) rotate(90)"/><path class="a" d="M2,0A2,2,0,1,1,0,2,2,2,0,0,1,2,0Z" transform="translate(768 560) rotate(90)"/><path class="a" d="M2,0A2,2,0,1,1,0,2,2,2,0,0,1,2,0Z" transform="translate(768 576) rotate(90)"/><path class="a" d="M2,0A2,2,0,1,1,0,2,2,2,0,0,1,2,0Z" transform="translate(768 592) rotate(90)"/><path class="a" d="M2,0A2,2,0,1,1,0,2,2,2,0,0,1,2,0Z" transform="translate(768 608) rotate(90)"/><path class="a" d="M2,0A2,2,0,1,1,0,2,2,2,0,0,1,2,0Z" transform="translate(752 560) rotate(90)"/><path class="a" d="M2,0A2,2,0,1,1,0,2,2,2,0,0,1,2,0Z" transform="translate(752 576) rotate(90)"/><path class="a" d="M2,0A2,2,0,1,1,0,2,2,2,0,0,1,2,0Z" transform="translate(752 592) rotate(90)"/><path class="a" d="M2,0A2,2,0,1,1,0,2,2,2,0,0,1,2,0Z" transform="translate(752 608) rotate(90)"/><path class="a" d="M2,0A2,2,0,1,1,0,2,2,2,0,0,1,2,0Z" transform="translate(736 560) rotate(90)"/><path class="a" d="M2,0A2,2,0,1,1,0,2,2,2,0,0,1,2,0Z" transform="translate(736 576) rotate(90)"/><path class="a" d="M2,0A2,2,0,1,1,0,2,2,2,0,0,1,2,0Z" transform="translate(736 592) rotate(90)"/><path class="a" d="M2,0A2,2,0,1,1,0,2,2,2,0,0,1,2,0Z" transform="translate(736 608) rotate(90)"/><path class="a" d="M2,0A2,2,0,1,1,0,2,2,2,0,0,1,2,0Z" transform="translate(720 560) rotate(90)"/><path class="a" d="M2,0A2,2,0,1,1,0,2,2,2,0,0,1,2,0Z" transform="translate(720 576) rotate(90)"/><path class="a" d="M2,0A2,2,0,1,1,0,2,2,2,0,0,1,2,0Z" transform="translate(720 592) rotate(90)"/><path class="a" d="M2,0A2,2,0,1,1,0,2,2,2,0,0,1,2,0Z" transform="translate(720 608) rotate(90)"/><path class="a" d="M2,0A2,2,0,1,1,0,2,2,2,0,0,1,2,0Z" transform="translate(704 560) rotate(90)"/><path class="a" d="M2,0A2,2,0,1,1,0,2,2,2,0,0,1,2,0Z" transform="translate(704 576) rotate(90)"/><path class="a" d="M2,0A2,2,0,1,1,0,2,2,2,0,0,1,2,0Z" transform="translate(704 592) rotate(90)"/><path class="a" d="M2,0A2,2,0,1,1,0,2,2,2,0,0,1,2,0Z" transform="translate(704 608) rotate(90)"/></g></svg>