<svg xmlns="http://www.w3.org/2000/svg" width="52" height="196" viewBox="0 0 52 196"><defs><style>.a{fill:#34a1fe;}</style></defs><g transform="translate(-184 -1225)"><path class="a" d="M2,0A2,2,0,1,1,0,2,2,2,0,0,1,2,0Z" transform="translate(184 1225)"/><path class="a" d="M2,0A2,2,0,1,1,0,2,2,2,0,0,1,2,0Z" transform="translate(200 1225)"/><path class="a" d="M2,0A2,2,0,1,1,0,2,2,2,0,0,1,2,0Z" transform="translate(216 1225)"/><path class="a" d="M2,0A2,2,0,1,1,0,2,2,2,0,0,1,2,0Z" transform="translate(232 1225)"/><path class="a" d="M2,0A2,2,0,1,1,0,2,2,2,0,0,1,2,0Z" transform="translate(184 1241)"/><path class="a" d="M2,0A2,2,0,1,1,0,2,2,2,0,0,1,2,0Z" transform="translate(200 1241)"/><path class="a" d="M2,0A2,2,0,1,1,0,2,2,2,0,0,1,2,0Z" transform="translate(216 1241)"/><path class="a" d="M2,0A2,2,0,1,1,0,2,2,2,0,0,1,2,0Z" transform="translate(232 1241)"/><path class="a" d="M2,0A2,2,0,1,1,0,2,2,2,0,0,1,2,0Z" transform="translate(184 1257)"/><path class="a" d="M2,0A2,2,0,1,1,0,2,2,2,0,0,1,2,0Z" transform="translate(200 1257)"/><path class="a" d="M2,0A2,2,0,1,1,0,2,2,2,0,0,1,2,0Z" transform="translate(216 1257)"/><path class="a" d="M2,0A2,2,0,1,1,0,2,2,2,0,0,1,2,0Z" transform="translate(232 1257)"/><path class="a" d="M2,0A2,2,0,1,1,0,2,2,2,0,0,1,2,0Z" transform="translate(184 1273)"/><path class="a" d="M2,0A2,2,0,1,1,0,2,2,2,0,0,1,2,0Z" transform="translate(200 1273)"/><path class="a" d="M2,0A2,2,0,1,1,0,2,2,2,0,0,1,2,0Z" transform="translate(216 1273)"/><path class="a" d="M2,0A2,2,0,1,1,0,2,2,2,0,0,1,2,0Z" transform="translate(232 1273)"/><path class="a" d="M2,0A2,2,0,1,1,0,2,2,2,0,0,1,2,0Z" transform="translate(184 1289)"/><path class="a" d="M2,0A2,2,0,1,1,0,2,2,2,0,0,1,2,0Z" transform="translate(200 1289)"/><path class="a" d="M2,0A2,2,0,1,1,0,2,2,2,0,0,1,2,0Z" transform="translate(216 1289)"/><path class="a" d="M2,0A2,2,0,1,1,0,2,2,2,0,0,1,2,0Z" transform="translate(232 1289)"/><path class="a" d="M2,0A2,2,0,1,1,0,2,2,2,0,0,1,2,0Z" transform="translate(184 1305)"/><path class="a" d="M2,0A2,2,0,1,1,0,2,2,2,0,0,1,2,0Z" transform="translate(200 1305)"/><path class="a" d="M2,0A2,2,0,1,1,0,2,2,2,0,0,1,2,0Z" transform="translate(216 1305)"/><path class="a" d="M2,0A2,2,0,1,1,0,2,2,2,0,0,1,2,0Z" transform="translate(232 1305)"/><path class="a" d="M2,0A2,2,0,1,1,0,2,2,2,0,0,1,2,0Z" transform="translate(184 1321)"/><path class="a" d="M2,0A2,2,0,1,1,0,2,2,2,0,0,1,2,0Z" transform="translate(200 1321)"/><path class="a" d="M2,0A2,2,0,1,1,0,2,2,2,0,0,1,2,0Z" transform="translate(216 1321)"/><path class="a" d="M2,0A2,2,0,1,1,0,2,2,2,0,0,1,2,0Z" transform="translate(232 1321)"/><path class="a" d="M2,0A2,2,0,1,1,0,2,2,2,0,0,1,2,0Z" transform="translate(184 1337)"/><path class="a" d="M2,0A2,2,0,1,1,0,2,2,2,0,0,1,2,0Z" transform="translate(200 1337)"/><path class="a" d="M2,0A2,2,0,1,1,0,2,2,2,0,0,1,2,0Z" transform="translate(216 1337)"/><path class="a" d="M2,0A2,2,0,1,1,0,2,2,2,0,0,1,2,0Z" transform="translate(232 1337)"/><path class="a" d="M2,0A2,2,0,1,1,0,2,2,2,0,0,1,2,0Z" transform="translate(184 1353)"/><path class="a" d="M2,0A2,2,0,1,1,0,2,2,2,0,0,1,2,0Z" transform="translate(200 1353)"/><path class="a" d="M2,0A2,2,0,1,1,0,2,2,2,0,0,1,2,0Z" transform="translate(216 1353)"/><path class="a" d="M2,0A2,2,0,1,1,0,2,2,2,0,0,1,2,0Z" transform="translate(232 1353)"/><path class="a" d="M2,0A2,2,0,1,1,0,2,2,2,0,0,1,2,0Z" transform="translate(184 1369)"/><path class="a" d="M2,0A2,2,0,1,1,0,2,2,2,0,0,1,2,0Z" transform="translate(200 1369)"/><path class="a" d="M2,0A2,2,0,1,1,0,2,2,2,0,0,1,2,0Z" transform="translate(216 1369)"/><path class="a" d="M2,0A2,2,0,1,1,0,2,2,2,0,0,1,2,0Z" transform="translate(232 1369)"/><path class="a" d="M2,0A2,2,0,1,1,0,2,2,2,0,0,1,2,0Z" transform="translate(184 1385)"/><path class="a" d="M2,0A2,2,0,1,1,0,2,2,2,0,0,1,2,0Z" transform="translate(200 1385)"/><path class="a" d="M2,0A2,2,0,1,1,0,2,2,2,0,0,1,2,0Z" transform="translate(216 1385)"/><path class="a" d="M2,0A2,2,0,1,1,0,2,2,2,0,0,1,2,0Z" transform="translate(232 1385)"/><path class="a" d="M2,0A2,2,0,1,1,0,2,2,2,0,0,1,2,0Z" transform="translate(184 1401)"/><path class="a" d="M2,0A2,2,0,1,1,0,2,2,2,0,0,1,2,0Z" transform="translate(200 1401)"/><path class="a" d="M2,0A2,2,0,1,1,0,2,2,2,0,0,1,2,0Z" transform="translate(216 1401)"/><path class="a" d="M2,0A2,2,0,1,1,0,2,2,2,0,0,1,2,0Z" transform="translate(232 1401)"/><path class="a" d="M2,0A2,2,0,1,1,0,2,2,2,0,0,1,2,0Z" transform="translate(184 1417)"/><path class="a" d="M2,0A2,2,0,1,1,0,2,2,2,0,0,1,2,0Z" transform="translate(200 1417)"/><path class="a" d="M2,0A2,2,0,1,1,0,2,2,2,0,0,1,2,0Z" transform="translate(216 1417)"/><path class="a" d="M2,0A2,2,0,1,1,0,2,2,2,0,0,1,2,0Z" transform="translate(232 1417)"/></g></svg>