<svg xmlns="http://www.w3.org/2000/svg" width="68" height="164" viewBox="0 0 68 164"><defs><style>.a{fill:#34a1fe;}</style></defs><g transform="translate(-1318 -2533)"><path class="a" d="M2,0A2,2,0,1,1,0,2,2,2,0,0,1,2,0Z" transform="translate(1318 2533)"/><path class="a" d="M2,0A2,2,0,1,1,0,2,2,2,0,0,1,2,0Z" transform="translate(1334 2533)"/><path class="a" d="M2,0A2,2,0,1,1,0,2,2,2,0,0,1,2,0Z" transform="translate(1350 2533)"/><path class="a" d="M2,0A2,2,0,1,1,0,2,2,2,0,0,1,2,0Z" transform="translate(1366 2533)"/><path class="a" d="M2,0A2,2,0,1,1,0,2,2,2,0,0,1,2,0Z" transform="translate(1382 2533)"/><path class="a" d="M2,0A2,2,0,1,1,0,2,2,2,0,0,1,2,0Z" transform="translate(1318 2549)"/><path class="a" d="M2,0A2,2,0,1,1,0,2,2,2,0,0,1,2,0Z" transform="translate(1334 2549)"/><path class="a" d="M2,0A2,2,0,1,1,0,2,2,2,0,0,1,2,0Z" transform="translate(1350 2549)"/><path class="a" d="M2,0A2,2,0,1,1,0,2,2,2,0,0,1,2,0Z" transform="translate(1366 2549)"/><path class="a" d="M2,0A2,2,0,1,1,0,2,2,2,0,0,1,2,0Z" transform="translate(1382 2549)"/><path class="a" d="M2,0A2,2,0,1,1,0,2,2,2,0,0,1,2,0Z" transform="translate(1318 2565)"/><path class="a" d="M2,0A2,2,0,1,1,0,2,2,2,0,0,1,2,0Z" transform="translate(1334 2565)"/><path class="a" d="M2,0A2,2,0,1,1,0,2,2,2,0,0,1,2,0Z" transform="translate(1350 2565)"/><path class="a" d="M2,0A2,2,0,1,1,0,2,2,2,0,0,1,2,0Z" transform="translate(1366 2565)"/><path class="a" d="M2,0A2,2,0,1,1,0,2,2,2,0,0,1,2,0Z" transform="translate(1382 2565)"/><path class="a" d="M2,0A2,2,0,1,1,0,2,2,2,0,0,1,2,0Z" transform="translate(1318 2581)"/><path class="a" d="M2,0A2,2,0,1,1,0,2,2,2,0,0,1,2,0Z" transform="translate(1334 2581)"/><path class="a" d="M2,0A2,2,0,1,1,0,2,2,2,0,0,1,2,0Z" transform="translate(1350 2581)"/><path class="a" d="M2,0A2,2,0,1,1,0,2,2,2,0,0,1,2,0Z" transform="translate(1366 2581)"/><path class="a" d="M2,0A2,2,0,1,1,0,2,2,2,0,0,1,2,0Z" transform="translate(1382 2581)"/><path class="a" d="M2,0A2,2,0,1,1,0,2,2,2,0,0,1,2,0Z" transform="translate(1318 2597)"/><path class="a" d="M2,0A2,2,0,1,1,0,2,2,2,0,0,1,2,0Z" transform="translate(1334 2597)"/><path class="a" d="M2,0A2,2,0,1,1,0,2,2,2,0,0,1,2,0Z" transform="translate(1350 2597)"/><path class="a" d="M2,0A2,2,0,1,1,0,2,2,2,0,0,1,2,0Z" transform="translate(1366 2597)"/><path class="a" d="M2,0A2,2,0,1,1,0,2,2,2,0,0,1,2,0Z" transform="translate(1382 2597)"/><path class="a" d="M2,0A2,2,0,1,1,0,2,2,2,0,0,1,2,0Z" transform="translate(1318 2613)"/><path class="a" d="M2,0A2,2,0,1,1,0,2,2,2,0,0,1,2,0Z" transform="translate(1334 2613)"/><path class="a" d="M2,0A2,2,0,1,1,0,2,2,2,0,0,1,2,0Z" transform="translate(1350 2613)"/><path class="a" d="M2,0A2,2,0,1,1,0,2,2,2,0,0,1,2,0Z" transform="translate(1366 2613)"/><path class="a" d="M2,0A2,2,0,1,1,0,2,2,2,0,0,1,2,0Z" transform="translate(1382 2613)"/><path class="a" d="M2,0A2,2,0,1,1,0,2,2,2,0,0,1,2,0Z" transform="translate(1318 2629)"/><path class="a" d="M2,0A2,2,0,1,1,0,2,2,2,0,0,1,2,0Z" transform="translate(1334 2629)"/><path class="a" d="M2,0A2,2,0,1,1,0,2,2,2,0,0,1,2,0Z" transform="translate(1350 2629)"/><path class="a" d="M2,0A2,2,0,1,1,0,2,2,2,0,0,1,2,0Z" transform="translate(1366 2629)"/><path class="a" d="M2,0A2,2,0,1,1,0,2,2,2,0,0,1,2,0Z" transform="translate(1382 2629)"/><path class="a" d="M2,0A2,2,0,1,1,0,2,2,2,0,0,1,2,0Z" transform="translate(1318 2645)"/><path class="a" d="M2,0A2,2,0,1,1,0,2,2,2,0,0,1,2,0Z" transform="translate(1334 2645)"/><path class="a" d="M2,0A2,2,0,1,1,0,2,2,2,0,0,1,2,0Z" transform="translate(1350 2645)"/><path class="a" d="M2,0A2,2,0,1,1,0,2,2,2,0,0,1,2,0Z" transform="translate(1366 2645)"/><path class="a" d="M2,0A2,2,0,1,1,0,2,2,2,0,0,1,2,0Z" transform="translate(1382 2645)"/><path class="a" d="M2,0A2,2,0,1,1,0,2,2,2,0,0,1,2,0Z" transform="translate(1318 2661)"/><path class="a" d="M2,0A2,2,0,1,1,0,2,2,2,0,0,1,2,0Z" transform="translate(1334 2661)"/><path class="a" d="M2,0A2,2,0,1,1,0,2,2,2,0,0,1,2,0Z" transform="translate(1350 2661)"/><path class="a" d="M2,0A2,2,0,1,1,0,2,2,2,0,0,1,2,0Z" transform="translate(1366 2661)"/><path class="a" d="M2,0A2,2,0,1,1,0,2,2,2,0,0,1,2,0Z" transform="translate(1382 2661)"/><path class="a" d="M2,0A2,2,0,1,1,0,2,2,2,0,0,1,2,0Z" transform="translate(1318 2677)"/><path class="a" d="M2,0A2,2,0,1,1,0,2,2,2,0,0,1,2,0Z" transform="translate(1334 2677)"/><path class="a" d="M2,0A2,2,0,1,1,0,2,2,2,0,0,1,2,0Z" transform="translate(1350 2677)"/><path class="a" d="M2,0A2,2,0,1,1,0,2,2,2,0,0,1,2,0Z" transform="translate(1366 2677)"/><path class="a" d="M2,0A2,2,0,1,1,0,2,2,2,0,0,1,2,0Z" transform="translate(1382 2677)"/><path class="a" d="M2,0A2,2,0,1,1,0,2,2,2,0,0,1,2,0Z" transform="translate(1318 2693)"/><path class="a" d="M2,0A2,2,0,1,1,0,2,2,2,0,0,1,2,0Z" transform="translate(1334 2693)"/><path class="a" d="M2,0A2,2,0,1,1,0,2,2,2,0,0,1,2,0Z" transform="translate(1350 2693)"/><path class="a" d="M2,0A2,2,0,1,1,0,2,2,2,0,0,1,2,0Z" transform="translate(1366 2693)"/><path class="a" d="M2,0A2,2,0,1,1,0,2,2,2,0,0,1,2,0Z" transform="translate(1382 2693)"/></g></svg>