<svg xmlns="http://www.w3.org/2000/svg" width="115.238" height="40" viewBox="0 0 115.238 40"><defs><style>.a{fill:#1d1d1d;}</style></defs><path class="a" d="M7.484,4.3a1.5,1.5,0,0,0-1.5,1.5V34.193a1.5,1.5,0,1,0,2.993,0V5.807A1.5,1.5,0,0,0,7.484,4.3ZM1.5,14.624a1.5,1.5,0,0,0-1.5,1.5v7.743a1.5,1.5,0,1,0,2.993,0V16.129a1.5,1.5,0,0,0-1.5-1.5ZM13.471.86a1.5,1.5,0,0,0-1.5,1.5v35.27a1.5,1.5,0,1,0,2.993,0V2.366A1.5,1.5,0,0,0,13.471.86Zm24.439,25.1-5.933-5.968,5.9-5.933a1.512,1.512,0,0,0,0-2.129,1.491,1.491,0,0,0-2.117,0l-14.8,14.887V22.43L34.68,8.681a1.511,1.511,0,0,0,0-2.13,1.49,1.49,0,0,0-2.117,0L20.956,18.181V14.045l9.085-9.137a1.512,1.512,0,0,0,0-2.129,1.491,1.491,0,0,0-2.117,0L20.956,9.787V1.5a1.5,1.5,0,1,0-2.994,0V38.5a1.5,1.5,0,1,0,2.994,0V31.23l6.3,6.338a1.49,1.49,0,0,0,2.117,0,1.512,1.512,0,0,0,0-2.129L23,29.024l2.372-2.388,6.968,7.008a1.49,1.49,0,0,0,2.118,0,1.512,1.512,0,0,0,0-2.129l-6.968-7.008,2.372-2.388,5.935,5.969a1.489,1.489,0,0,0,2.116,0,1.511,1.511,0,0,0,0-2.13ZM57.7,14.46l-4.038,4.827V14.46H51.429V25.2h2.238V22.014l1.014-1.207L57.862,25.2h2.71l-4.249-5.927,4.091-4.809h-2.71Zm7.954,0L61.55,25.2h2.238l.944-2.588h4.022l.962,2.588h2.272L67.88,14.46H65.659Zm1.085,2.693,1.31,3.567H65.431l1.312-3.567Zm9.282,2.2h2.063c1.119,0,1.7-.594,1.7-1.486,0-.91-.577-1.5-1.7-1.5H76.026Zm0,1.835v4H73.8V14.46h4.424c2.255,0,3.759,1.207,3.759,3.41a3.025,3.025,0,0,1-2.448,3.165L82.372,25.2H79.855l-2.658-4H76.026ZM86.5,23.308h2.115c1.05,0,1.61-.525,1.61-1.347,0-.839-.56-1.346-1.61-1.346H86.5v2.692Zm1.819-4.441c1.067,0,1.626-.419,1.626-1.276s-.56-1.242-1.627-1.242H86.5v2.518h1.819Zm4.09,3.286c0,1.976-1.364,3.043-3.6,3.043H84.348V14.46h4.109c2.238,0,3.619,1,3.619,2.92a2.313,2.313,0,0,1-1.417,2.273,2.609,2.609,0,0,1,1.749,2.5Zm6.678-5.873c-1.7,0-2.8,1.451-2.8,3.549s1.1,3.55,2.8,3.55c1.714,0,2.832-1.451,2.832-3.55S100.8,16.279,99.085,16.279Zm0,9.091c-2.99,0-5.07-2.343-5.07-5.543,0-3.216,2.08-5.542,5.07-5.542s5.088,2.326,5.088,5.543C104.172,23.028,102.074,25.37,99.085,25.37Zm16.153-.175h-1.766l-5.07-7.15V25.2h-2.15V14.461h2.1l4.738,6.783V14.461h2.15Z"/></svg>