<svg xmlns="http://www.w3.org/2000/svg" width="111.703" height="29" viewBox="0 0 111.703 29"><defs><style>.a{fill:#282935;}.b{fill:#0845a7;}.c{fill:#fed023;}</style></defs><g transform="translate(-136 -3407)"><g transform="translate(5853.574 4901)"><path class="a" d="M4.62-48.27h7.04v2.176H6.8v2.5h3.9v2.176H6.8v4.672H4.62Zm8.64-.24h2.176v1.92H13.26Zm0,3.12h2.176v8.64H13.26Zm9.3-.256a3.016,3.016,0,0,1,2.268.776,3.36,3.36,0,0,1,.928,1.64,8.016,8.016,0,0,1,.18,1.632v4.848H23.724v-4.08a7.5,7.5,0,0,0-.1-1.232,2.144,2.144,0,0,0-.508-1.056,1.56,1.56,0,0,0-1.252-.48,1.818,1.818,0,0,0-1.3.516,2.67,2.67,0,0,0-.544,1.948v4.384H17.82v-8.64h1.936v.888a3.333,3.333,0,0,1,1.192-.844A4.069,4.069,0,0,1,22.556-45.646Zm12.352,1.584a2.573,2.573,0,0,1,.292.876,8.968,8.968,0,0,1,.06,1.156v5.28h-1.9v-1.056a3.516,3.516,0,0,1-1.264.992,4.149,4.149,0,0,1-1.68.3,3.243,3.243,0,0,1-1.548-.348,2.416,2.416,0,0,1-.992-.948,2.646,2.646,0,0,1-.34-1.328,2.768,2.768,0,0,1,.44-1.592,2.866,2.866,0,0,1,1.448-1.016,8.253,8.253,0,0,1,1.368-.356q.808-.148,2.328-.372a1.209,1.209,0,0,0-.444-.892,1.9,1.9,0,0,0-1.14-.284,2.254,2.254,0,0,0-1.048.256,1.352,1.352,0,0,0-.68.8l-1.968-.624A3.218,3.218,0,0,1,29.1-44.982a4.163,4.163,0,0,1,2.432-.648Q34.084-45.63,34.908-44.062Zm-2.032,4.688A3.34,3.34,0,0,0,33.1-40.71q-1.128.192-1.656.3a6.187,6.187,0,0,0-.888.248,1.853,1.853,0,0,0-.684.428.815.815,0,0,0-.212.564.829.829,0,0,0,.324.692,1.419,1.419,0,0,0,.892.252,2.249,2.249,0,0,0,.968-.2,2.218,2.218,0,0,0,.668-.46A2.011,2.011,0,0,0,32.876-39.374Zm9.184-6.272a3.016,3.016,0,0,1,2.268.776,3.36,3.36,0,0,1,.928,1.64,8.017,8.017,0,0,1,.18,1.632v4.848H43.228v-4.08a7.5,7.5,0,0,0-.1-1.232,2.144,2.144,0,0,0-.508-1.056,1.56,1.56,0,0,0-1.252-.48,1.818,1.818,0,0,0-1.3.516,2.67,2.67,0,0,0-.544,1.948v4.384H37.324v-8.64H39.26v.888a3.333,3.333,0,0,1,1.192-.844A4.069,4.069,0,0,1,42.06-45.646Zm9.1,9.136A4.3,4.3,0,0,1,48.88-37.1a3.9,3.9,0,0,1-1.488-1.628,5.177,5.177,0,0,1-.516-2.34,5.066,5.066,0,0,1,.532-2.348,3.967,3.967,0,0,1,1.512-1.624A4.338,4.338,0,0,1,51.2-45.63a4.576,4.576,0,0,1,1.82.348,3.465,3.465,0,0,1,1.344,1,3.6,3.6,0,0,1,.724,1.532l-2.176.576a2.015,2.015,0,0,0-.664-1.044,1.674,1.674,0,0,0-1.08-.38,1.707,1.707,0,0,0-1.488.7,3.09,3.09,0,0,0-.5,1.832,3.008,3.008,0,0,0,.512,1.844,1.727,1.727,0,0,0,1.472.684,1.7,1.7,0,0,0,1.1-.32,1.941,1.941,0,0,0,.6-.976l2.224.464a3.7,3.7,0,0,1-1.392,2.12A4.186,4.186,0,0,1,51.164-36.51Zm5.44-12H58.78v1.92H56.6Zm0,3.12H58.78v8.64H56.6Zm11.472,1.328a2.573,2.573,0,0,1,.292.876,8.968,8.968,0,0,1,.06,1.156v5.28h-1.9v-1.056a3.517,3.517,0,0,1-1.264.992,4.149,4.149,0,0,1-1.68.3,3.243,3.243,0,0,1-1.548-.348,2.416,2.416,0,0,1-.992-.948,2.646,2.646,0,0,1-.34-1.328,2.768,2.768,0,0,1,.44-1.592,2.866,2.866,0,0,1,1.448-1.016,8.252,8.252,0,0,1,1.368-.356q.808-.148,2.328-.372a1.209,1.209,0,0,0-.444-.892,1.9,1.9,0,0,0-1.14-.284,2.254,2.254,0,0,0-1.048.256,1.352,1.352,0,0,0-.68.8L61-43.214a3.218,3.218,0,0,1,1.264-1.768A4.163,4.163,0,0,1,64.7-45.63Q67.252-45.63,68.076-44.062Zm-2.032,4.688a3.34,3.34,0,0,0,.224-1.336q-1.128.192-1.656.3a6.187,6.187,0,0,0-.888.248,1.853,1.853,0,0,0-.684.428.815.815,0,0,0-.212.564.829.829,0,0,0,.324.692,1.419,1.419,0,0,0,.892.252,2.249,2.249,0,0,0,.968-.2,2.218,2.218,0,0,0,.668-.46A2.011,2.011,0,0,0,66.044-39.374Zm4.624-9.136h2.176v11.76H70.668Z" transform="translate(-5678.714 -1445.095)"/><path class="a" d="M7.472-36.51a5.669,5.669,0,0,1-2.308-.456,4.273,4.273,0,0,1-1.692-1.3,4.258,4.258,0,0,1-.832-2l2.272-.336a2.728,2.728,0,0,0,.552,1.116,2.528,2.528,0,0,0,.948.708,3.005,3.005,0,0,0,1.2.24,3.247,3.247,0,0,0,1.056-.172,1.978,1.978,0,0,0,.82-.508,1.118,1.118,0,0,0,.316-.792,1,1,0,0,0-.248-.672,1.863,1.863,0,0,0-.872-.48L5.7-42.046a6.151,6.151,0,0,1-1.2-.472,2.758,2.758,0,0,1-.976-.912,2.815,2.815,0,0,1-.428-1.624,3.14,3.14,0,0,1,.568-1.9A3.4,3.4,0,0,1,5.2-48.118a5.838,5.838,0,0,1,2.192-.376,5.088,5.088,0,0,1,3,.892A4.259,4.259,0,0,1,12-45.118l-2.352.4a2.075,2.075,0,0,0-.484-.952,2.3,2.3,0,0,0-.848-.592,2.745,2.745,0,0,0-1.044-.2,2.674,2.674,0,0,0-.936.16,1.705,1.705,0,0,0-.7.456.992.992,0,0,0-.264.68.873.873,0,0,0,.416.776,3.834,3.834,0,0,0,1.12.456l2,.544a9.7,9.7,0,0,1,1.516.536,3.112,3.112,0,0,1,1.164.96,2.747,2.747,0,0,1,.5,1.72,3.178,3.178,0,0,1-.644,2.012,3.9,3.9,0,0,1-1.7,1.24A6.218,6.218,0,0,1,7.472-36.51Zm8.248-3.952a2.317,2.317,0,0,0,.636,1.424,1.919,1.919,0,0,0,1.388.5,2.06,2.06,0,0,0,1.092-.28,1.779,1.779,0,0,0,.7-.808l2.176.624a3.914,3.914,0,0,1-.9,1.34,4.011,4.011,0,0,1-1.344.86,4.348,4.348,0,0,1-1.592.3,4.712,4.712,0,0,1-2.332-.568,4.059,4.059,0,0,1-1.592-1.584,4.6,4.6,0,0,1-.572-2.3,5.2,5.2,0,0,1,.556-2.452,4.014,4.014,0,0,1,1.548-1.64,4.4,4.4,0,0,1,2.264-.58,4.134,4.134,0,0,1,2.168.552,3.62,3.62,0,0,1,1.412,1.568,5.414,5.414,0,0,1,.492,2.384q0,.216-.032.664Zm2.12-3.28a1.9,1.9,0,0,0-2.064,1.664h3.808a2.052,2.052,0,0,0-.532-1.268A1.7,1.7,0,0,0,17.84-43.742Zm8.592-1.232a3.232,3.232,0,0,1,1.728-.448,3.523,3.523,0,0,1,.5.032v2.032a2.032,2.032,0,0,0-.616-.08,2.49,2.49,0,0,0-1.08.224,1.913,1.913,0,0,0-.88.784,2.465,2.465,0,0,0-.3,1.264v4.416H23.584v-8.64H25.5V-44A2.487,2.487,0,0,1,26.432-44.974Zm2.944-.416h2.176L33.6-39.406l2.048-5.984h2.176l-3.136,8.64H32.512Zm10.048-3.12H41.6v1.92H39.424Zm0,3.12H41.6v8.64H39.424Zm8.384,8.88a4.3,4.3,0,0,1-2.284-.592,3.9,3.9,0,0,1-1.488-1.628,5.177,5.177,0,0,1-.516-2.34,5.066,5.066,0,0,1,.532-2.348,3.967,3.967,0,0,1,1.512-1.624,4.338,4.338,0,0,1,2.276-.588,4.576,4.576,0,0,1,1.82.348,3.465,3.465,0,0,1,1.344,1,3.6,3.6,0,0,1,.724,1.532l-2.176.576a2.015,2.015,0,0,0-.664-1.044,1.674,1.674,0,0,0-1.08-.38,1.707,1.707,0,0,0-1.488.7,3.09,3.09,0,0,0-.5,1.832,3.008,3.008,0,0,0,.512,1.844,1.727,1.727,0,0,0,1.472.684,1.7,1.7,0,0,0,1.1-.32,1.941,1.941,0,0,0,.6-.976l2.224.464a3.7,3.7,0,0,1-1.392,2.12A4.186,4.186,0,0,1,47.808-36.51Zm7.144-3.952a2.317,2.317,0,0,0,.636,1.424,1.919,1.919,0,0,0,1.388.5,2.06,2.06,0,0,0,1.092-.28,1.779,1.779,0,0,0,.7-.808l2.176.624a3.914,3.914,0,0,1-.9,1.34,4.011,4.011,0,0,1-1.344.86,4.348,4.348,0,0,1-1.592.3,4.712,4.712,0,0,1-2.332-.568,4.059,4.059,0,0,1-1.592-1.584,4.6,4.6,0,0,1-.572-2.3,5.2,5.2,0,0,1,.556-2.452,4.014,4.014,0,0,1,1.548-1.64,4.4,4.4,0,0,1,2.264-.58,4.134,4.134,0,0,1,2.168.552,3.62,3.62,0,0,1,1.412,1.568,5.414,5.414,0,0,1,.492,2.384q0,.216-.032.664Zm2.12-3.28a1.9,1.9,0,0,0-2.064,1.664h3.808a2.052,2.052,0,0,0-.532-1.268A1.7,1.7,0,0,0,57.072-43.742Zm9.12,7.232a4.354,4.354,0,0,1-2.636-.736,3.078,3.078,0,0,1-1.22-2.1l2.224-.336a1.546,1.546,0,0,0,.6.956,1.97,1.97,0,0,0,1.188.34,1.56,1.56,0,0,0,.908-.228.734.734,0,0,0,.324-.636.61.61,0,0,0-.132-.42,1.365,1.365,0,0,0-.544-.292q-.412-.144-1.4-.408a7.609,7.609,0,0,1-1.7-.608,2.279,2.279,0,0,1-.9-.8,2.161,2.161,0,0,1-.28-1.136,2.477,2.477,0,0,1,.424-1.44,2.7,2.7,0,0,1,1.2-.948,4.589,4.589,0,0,1,1.816-.332,4.849,4.849,0,0,1,1.8.312,3.11,3.11,0,0,1,1.272.892,2.668,2.668,0,0,1,.6,1.356l-2.224.4a1.08,1.08,0,0,0-.416-.76,1.785,1.785,0,0,0-.976-.328l-.168-.008a1.563,1.563,0,0,0-.844.2.615.615,0,0,0-.316.544.494.494,0,0,0,.16.38,1.854,1.854,0,0,0,.624.3q.464.156,1.52.42a6.486,6.486,0,0,1,1.584.6,2.261,2.261,0,0,1,.864.812,2.273,2.273,0,0,1,.272,1.152,2.671,2.671,0,0,1-.432,1.524,2.707,2.707,0,0,1-1.248.984A5.016,5.016,0,0,1,66.192-36.51Z" transform="translate(-5677.214 -1428.61)"/></g><g transform="translate(76.901 5631)"><rect class="b" width="35" height="29" transform="translate(59.099 -2224)"/><path class="c" d="M71.428-2223.265l13.923,28.394v-28.394Z" transform="translate(-1.212 -0.735)"/></g></g></svg>