<svg xmlns="http://www.w3.org/2000/svg" width="87.625" height="30" viewBox="0 0 87.625 30"><defs><style>.a{fill:#623f99;}.a,.b{fill-rule:evenodd;}.b{fill:#fff;}</style></defs><g transform="translate(0 0.08)"><path class="a" d="M-56.2,237.81H16.425a15.044,15.044,0,0,0,15-15v-15H-41.2a15.044,15.044,0,0,0-15,15Z" transform="translate(56.2 -207.89)"/><path class="b" d="M597.8,230.118v-1.886h.836a1.112,1.112,0,0,1,.383.051.423.423,0,0,1,.21.179.539.539,0,0,1,.079.285.474.474,0,0,1-.125.337.659.659,0,0,1-.4.175.637.637,0,0,1,.15.1,1.3,1.3,0,0,1,.207.25l.328.514h-.314l-.25-.393c-.074-.114-.134-.2-.181-.26a.539.539,0,0,0-.125-.125.4.4,0,0,0-.114-.05.727.727,0,0,0-.139-.009h-.289v.837Zm.691.935h0a1.793,1.793,0,0,1-1.273-.525h0a1.79,1.79,0,0,1-.526-1.27h0a1.8,1.8,0,0,1,1.8-1.8h0a1.8,1.8,0,0,1,1.8,1.8h0a1.8,1.8,0,0,1-1.8,1.8Zm0-.2h0a1.6,1.6,0,0,0,1.6-1.6h0a1.6,1.6,0,0,0-1.6-1.6h0a1.605,1.605,0,0,0-1.6,1.6h0a1.6,1.6,0,0,0,.469,1.133h0a1.591,1.591,0,0,0,1.133.47Zm-.44-1.794h.536a.793.793,0,0,0,.269-.036.284.284,0,0,0,.148-.114.31.31,0,0,0,.05-.169.281.281,0,0,0-.1-.22.45.45,0,0,0-.306-.086h-.6v.625Z" transform="translate(-515.079 -225.084)"/><path class="b" d="M59.2,265.876v3.3h1.031c1.311,0,2.384-.741,2.384-1.649h0c0-.907-1.072-1.65-2.384-1.65ZM42.209,262.43c-6.026,0-9.375,3.726-9.375,8.321s4.193,8.321,9.375,8.321,9.375-3.726,9.375-8.321S48.237,262.43,42.209,262.43Zm.16,3.561c-2.07-.024-3.08,2.079-3.08,4.642s1.115,4.643,3.08,4.643,3.08-2.079,3.08-4.643S44.439,266.015,42.369,265.991Zm-25.85-3.27,5.489,9.75v6.192h6.306v-6.006l5.955-9.936H29.595l-3.182,6.131-2.306-4.409a3.469,3.469,0,0,0-3.329-1.723Zm-21.519,0H4.222l.921,10.039,2.234-10.039h7.971l1.226,15.943H13.654a3.247,3.247,0,0,1-3.562-3.125l-.466-8.466L7,278.664H1.06L-.8,267.6l-1.344,11.066H-6.55L-5,262.721ZM59.2,272v3.3h1.236c1.311,0,2.384-.741,2.384-1.649h0c0-.907-1.073-1.65-2.384-1.65Zm-5.9,6.662V262.721s2.483-.232,5.665-.2,9.354.2,9.518,4.088c.088,2.072-1.25,3.125-3.065,3.679,1.489.321,3.436,1.75,3.358,3.707-.146,3.591-5.606,4.992-9.9,4.875s-5.577-.2-5.577-.2Z" transform="translate(12.756 -255.682)"/></g></svg>