<svg xmlns="http://www.w3.org/2000/svg" width="181.579" height="35" viewBox="0 0 181.579 35"><defs><style>.a{fill:#bdc4cc;}.b{fill:#0845a7;}.c{fill:#fff;}</style></defs><g transform="translate(35.138 7.717)"><path class="a" d="M1160.765,650.656c0-.379-.31-.517-.655-.517h-.62v1.723h.31v-.723h.207l.413.723h.379l-.448-.758A.45.45,0,0,0,1160.765,650.656Zm-.965.241v-.483h.275c.172,0,.345.035.345.241s-.207.241-.379.241Zm.31-1.413a1.507,1.507,0,0,0-1.516,1.515,1.529,1.529,0,0,0,1.516,1.516,1.516,1.516,0,1,0,0-3.031Zm0,2.825a1.275,1.275,0,1,1,1.274-1.274A1.293,1.293,0,0,1,1160.11,652.31Z" transform="translate(-1015.185 -631.813)"/><path class="b" d="M292.133,554.946c-2.239,0-3.376-2-3.376-3.927s1.24-3.858,3.273-3.858a3.509,3.509,0,0,1,2.618,1.137l2.377-2.377a7.1,7.1,0,1,0-4.926,12.126,6.724,6.724,0,0,0,5-1.792l-2.308-2.48A3.49,3.49,0,0,1,292.133,554.946ZM278.87,557.7h3.686V544.371H278.87Zm-6.683-6.028a3.056,3.056,0,0,1-2.928,3.238c-1.481,0-2.239-1.034-2.239-3.2v-7.338h-3.686v8.268c0,2.756,1.378,5.443,5.03,5.443,1.722,0,3.169-1.378,3.927-2.377h.069v2h3.514V544.371h-3.686Zm-15.5-5.615h-.069a5.636,5.636,0,0,0-4.2-2.067,6.652,6.652,0,0,0-6.648,6.993c0,4.1,2.652,7.1,6.476,7.1a6.029,6.029,0,0,0,4.272-1.964h.069v8.164h3.686V544.371H256.72v1.688Zm-3.548,8.888a3.729,3.729,0,0,1-3.583-3.962,3.641,3.641,0,0,1,3.583-3.892,3.768,3.768,0,0,1,3.548,3.961A3.727,3.727,0,0,1,253.137,554.946Zm83.814-10.955a6.869,6.869,0,0,0-7.234,6.993,7.238,7.238,0,1,0,7.234-6.993Zm0,10.955c-2.411,0-3.479-2.033-3.479-3.962,0-1.86,1.1-3.892,3.479-3.892,2.411,0,3.479,2.032,3.479,3.892C340.43,552.879,339.362,554.946,336.951,554.946Zm46.024-5.442c-1.895-.448-2.549-.689-2.549-1.447,0-1.068,1.343-1.275,1.964-1.275a4.126,4.126,0,0,1,2.928,1.344l2.17-2.067a6.476,6.476,0,0,0-5.063-2c-2.653,0-5.443,1.344-5.443,4.341,0,2.583,2,3.341,4,3.824,2.067.482,2.825.827,2.825,1.688,0,1.24-1.412,1.447-1.895,1.447a4.742,4.742,0,0,1-3.341-1.585l-2.239,2.274a7.47,7.47,0,0,0,5.443,2.17c3.582,0,5.718-1.722,5.718-4.547C387.417,550.847,384.834,549.952,382.974,549.5Zm-6.958-5.133h-4.754l-4.754,5.546h-.068V537.033h-3.687V557.7h3.687v-6.58h.068l4.926,6.58h4.858l-5.719-7.269Zm-54.6-.379a5.744,5.744,0,0,0-4.1,1.826h-.034V537h-3.686v20.669h3.514v-1.9h.069a4.951,4.951,0,0,0,4.2,2.274c3.789,0,6.683-3,6.683-7.1A6.684,6.684,0,0,0,321.414,543.992Zm-.723,10.955a3.706,3.706,0,0,1-3.548-3.893,3.789,3.789,0,0,1,3.548-3.961,3.662,3.662,0,0,1,3.583,3.892A3.708,3.708,0,0,1,320.691,554.946Zm-8.475-10.576h-4.753l-4.754,5.546h-.069V537.033h-3.686V557.7h3.686v-6.58h.069l4.926,6.58h4.858l-5.718-7.269Zm40.891-.379a6.87,6.87,0,0,0-7.234,6.993,7.238,7.238,0,1,0,7.234-6.993Zm0,10.955c-2.412,0-3.479-2.033-3.479-3.962,0-1.86,1.1-3.892,3.479-3.892,2.411,0,3.479,2.032,3.479,3.892C356.621,552.879,355.519,554.946,353.107,554.946Z" transform="translate(-245.765 -536.999)"/></g><g transform="translate(0 0)"><circle class="b" cx="15.502" cy="15.502" r="15.502" transform="translate(0 0)"/><path class="c" d="M49.515,532.03a6.013,6.013,0,0,0,6.029,6.028H56.4V535.82h-.861a3.789,3.789,0,1,1,0-7.579H57.61v11.713a2.234,2.234,0,0,0,2.239,2.239V526H55.544A6.035,6.035,0,0,0,49.515,532.03ZM65.878,526h-.861v2.239h.861a3.789,3.789,0,1,1,0,7.579H63.811V524.107a2.235,2.235,0,0,0-2.239-2.239v16.19h4.306a6.028,6.028,0,1,0,0-12.057Z" transform="translate(-45.209 -516.529)"/></g><path class="b" d="M271.087,499.375a1.034,1.034,0,1,0-1.034-1.034A1.084,1.084,0,0,0,271.087,499.375Zm-6.1.689a2.356,2.356,0,0,0-2.1,1.275h-.035v-1.1h-1.618v6.787h1.688V503.3a1.659,1.659,0,0,1,1.585-1.826c1.1,0,1.275,1,1.275,1.792v3.755h1.688v-4.237A2.427,2.427,0,0,0,264.989,500.064Zm-7.165,6.959h1.688v-6.787h-1.688Zm30.832-7.648a1.034,1.034,0,1,0-1.033-1.034A1.036,1.036,0,0,0,288.656,499.375Zm-2.756.861v1.516h1.895v5.271h1.688v-5.271h1.895v-1.516Zm-2.894,6.787h1.688v-6.787h-1.688Zm-14.641-5.271h1.895v5.271h1.688v-5.271h1.895v-1.516h-5.512v1.516Zm11.2,2.239a1.659,1.659,0,0,1-1.584,1.826c-1.1,0-1.275-1-1.275-1.791v-3.755h-1.688v4.237a2.481,2.481,0,0,0,2.515,2.756,2.356,2.356,0,0,0,2.1-1.275h.035v1.1h1.619v-6.786h-1.722v3.686Z" transform="translate(-220.791 -495.827)"/></svg>