<svg xmlns="http://www.w3.org/2000/svg" xmlns:xlink="http://www.w3.org/1999/xlink" width="70.714" height="35" viewBox="0 0 70.714 35"><defs><style>.a{fill:url(#a);}.b{fill:#1870c5;}.c{fill:#fff;fill-rule:evenodd;}</style><linearGradient id="a" x2="0.011" gradientUnits="objectBoundingBox"><stop offset="0" stop-color="#00b8f1"/><stop offset="0.22" stop-color="#06a5e5"/><stop offset="0.794" stop-color="#1870c5"/><stop offset="1" stop-color="#1d61bc"/></linearGradient></defs><path class="a" d="M0,0V34.982H35.735L70.714,0H0Z"/><path class="b" d="M57.084,39.616v2.609h.394V41.093h.443l.714,1.132h.443l-.763-1.132A.706.706,0,0,0,59,40.355c0-.514-.315-.738-.935-.738Zm.394.345h.541c.266,0,.566.043.566.369,0,.407-.3.443-.64.443h-.468Zm.492-1.3a2.277,2.277,0,1,0,2.264,2.264A2.244,2.244,0,0,0,57.97,38.656Zm0,.369a1.9,1.9,0,0,1,0,3.79,1.9,1.9,0,0,1,0-3.79Z" transform="translate(-11.82 -8.21)"/><path class="c" d="M42.638,18.413H41.105V12.807h1.533c2.046,0,3.675.674,3.675,2.767,0,2.161-1.629,2.839-3.675,2.839m-16.5,4.007a6.366,6.366,0,0,1-2.23-.4l2.208-6.963h.047l2.162,6.981a6.5,6.5,0,0,1-2.185.376M42.232,8.253h-6.96V24.8l-6.08-16.55H23.164l-5.2,13.837c-.549-3.488-4.162-4.7-7-5.6-1.872-.6-3.865-1.488-3.847-2.468.016-.8,1.07-1.545,3.15-1.434a11.3,11.3,0,0,1,5.094,1.371l2.418-4.212A18.806,18.806,0,0,0,9.9,7.883H9.883a9.583,9.583,0,0,0-6.962,2.546,5.889,5.889,0,0,0-1.666,4.062,5.453,5.453,0,0,0,2.39,4.857,16.427,16.427,0,0,0,4.733,2.167c1.934.6,3.512,1.117,3.494,2.227a1.614,1.614,0,0,1-.458,1.082,3.062,3.062,0,0,1-2.244.708,9.64,9.64,0,0,1-5.765-1.645L1.256,28.159a16.06,16.06,0,0,0,7.879,2.1H9.5a9.542,9.542,0,0,0,5.99-2.011l.255-.223-.7,1.871h6.321l1.062-3.228a12.088,12.088,0,0,0,7.345.031l1.021,3.2H41.107V23.205h2.25c5.435,0,8.653-2.766,8.653-7.408,0-5.167-3.125-7.537-9.779-7.537" transform="translate(-0.266 -1.674)"/></svg>