<svg xmlns="http://www.w3.org/2000/svg" width="50" height="49.556" viewBox="0 0 50 49.556"><defs><style>.a{fill:#0845a7;}.b{fill:#34a1fe;}</style></defs><g transform="translate(0)"><path class="a" d="M325.071,159.852a1.5,1.5,0,0,0,1.384-.98,1.466,1.466,0,0,0-.514-1.653,1.539,1.539,0,0,0-1.663-.1,1.46,1.46,0,0,0,.794,2.729Zm0,0" transform="translate(-291.943 -141.6)"/><path class="a" d="M13.816,43.14a4.408,4.408,0,0,0-4.425-4.272,4.39,4.39,0,0,0-4.257,5.6l-4.561,3.5a1.464,1.464,0,1,0,1.782,2.323l4.483-3.44a4.461,4.461,0,0,0,5.677-.478,4.486,4.486,0,0,0,.391-.442l4.632,1.77a16.249,16.249,0,0,1,.929-2.779Zm-3.358,1.145a1.542,1.542,0,0,1-1.675.317,1.461,1.461,0,0,1,.2-2.758,1.538,1.538,0,0,1,1.619.548,1.448,1.448,0,0,1-.143,1.893Zm0,0" transform="translate(0 -35.072)"/><path class="a" d="M200.535,13.755a4.358,4.358,0,0,1,3.094-1.35,4.4,4.4,0,0,1,1.939.388l6.317-6.5a4.373,4.373,0,0,1,.253-4.242,16.476,16.476,0,0,0-23.037,7.8l11.13,4.254a4.488,4.488,0,0,1,.3-.348Zm0,0" transform="translate(-170.634 -0.003)"/><path class="b" d="M205.628,82.414a4.363,4.363,0,0,1-2.454.732,4.409,4.409,0,0,1-1.921-.428l-6.275,6.461a4.42,4.42,0,1,1-8.382,2.078v-.013l-11.13-4.254a16.586,16.586,0,0,0-.446,3.83,16.454,16.454,0,1,0,30.609-8.407Zm0,0" transform="translate(-157.927 -74.366)"/><path class="a" d="M448.171,37.727a1.476,1.476,0,0,0,1.1,2.156,1.549,1.549,0,0,0,.943-.169,16.682,16.682,0,0,0-2.048-1.987Zm0,0" transform="translate(-404.239 -34.042)"/><path class="a" d="M427.675,3.363a1.538,1.538,0,0,1,1.777-.268,1.48,1.48,0,0,1,.734,1.7,1.509,1.509,0,0,1-.71.879A16.5,16.5,0,0,1,431.2,8.048a4.567,4.567,0,0,0,.669-.547,4.409,4.409,0,0,0-6.248-6.222,4.42,4.42,0,0,0-.618.764,16.326,16.326,0,0,1,2.428,1.641,1.475,1.475,0,0,1,.247-.322Zm0,0" transform="translate(-383.496)"/><rect class="a" width="24.5" height="6" transform="translate(0.444 45.313) rotate(-45)"/></g></svg>