<svg xmlns="http://www.w3.org/2000/svg" xmlns:xlink="http://www.w3.org/1999/xlink" width="176" height="176" viewBox="0 0 176 176"><defs><style>.a{fill:#0845a7;}.b{clip-path:url(#c);}.c{opacity:0.15;}.d{fill:#fff;}.e{filter:url(#a);}</style><filter id="a" x="-45" y="-35" width="266" height="266" filterUnits="userSpaceOnUse"><feOffset dy="10" input="SourceAlpha"/><feGaussianBlur stdDeviation="15" result="b"/><feFlood flood-color="#33a2fe" flood-opacity="0.251"/><feComposite operator="in" in2="b"/><feComposite in="SourceGraphic"/></filter><clipPath id="c"><g class="e" transform="matrix(1, 0, 0, 1, 0, 0)"><rect class="a" width="176" height="176" rx="4" transform="translate(1108 3178)"/></g></clipPath></defs><g class="b" transform="translate(-1108 -3178)"><g class="c" transform="translate(1118 3148)"><g transform="translate(113.557 94.631)"><path class="d" d="M256,234.667v15.141a15.141,15.141,0,1,0,30.282,0V234.667H256Zm22.711,15.141a7.571,7.571,0,1,1-15.141,0v-7.571h15.141Z" transform="translate(-256 -234.667)"/></g><g transform="translate(136.268 94.631)"><path class="d" d="M307.2,234.667v15.141a15.141,15.141,0,1,0,30.282,0V234.667H307.2Zm22.711,15.141a7.571,7.571,0,1,1-15.141,0v-7.571h15.141Z" transform="translate(-307.2 -234.667)"/></g><g transform="translate(158.98 94.631)"><path class="d" d="M358.4,234.667v15.141a15.141,15.141,0,1,0,30.281,0V234.667H358.4Zm22.711,15.141a7.571,7.571,0,1,1-15.141,0v-7.571h15.141Z" transform="translate(-358.4 -234.667)"/></g><g transform="translate(181.691 94.631)"><path class="d" d="M409.6,234.667v15.141a15.141,15.141,0,1,0,30.282,0V234.667H409.6Zm22.711,15.141a7.571,7.571,0,1,1-15.141,0v-7.571h15.141Z" transform="translate(-409.6 -234.667)"/></g><g transform="translate(113.557 52.993)"><g transform="translate(0)"><path class="d" d="M256,140.8v49.208h30.282V140.8Zm22.711,41.638H263.571V148.371h15.141Z" transform="translate(-256 -140.8)"/></g></g><g transform="translate(136.268 52.993)"><g transform="translate(0)"><path class="d" d="M307.2,140.8v49.208h30.282V140.8Zm22.711,41.638H314.771V148.371h15.141Z" transform="translate(-307.2 -140.8)"/></g></g><g transform="translate(158.98 52.993)"><path class="d" d="M358.4,140.8v49.208h30.282V140.8Zm22.711,41.638H365.971V148.371h15.141Z" transform="translate(-358.4 -140.8)"/></g><g transform="translate(181.691 52.993)"><path class="d" d="M409.6,140.8v49.208h30.282V140.8Zm22.711,41.638H417.171V148.371h15.141Z" transform="translate(-409.6 -140.8)"/></g><g transform="translate(0 30.282)"><path class="d" d="M0,89.6V267.506H227.114V89.6ZM219.543,259.935H7.571V97.171H219.544V259.935Z" transform="translate(0 -89.6)"/></g><g transform="translate(113.557 94.631)"><path class="d" d="M256,234.667v79.49h98.416v-79.49Zm90.846,71.919H263.571V242.237h83.275Z" transform="translate(-256 -234.667)"/></g><g transform="translate(15.141 94.631)"><g transform="translate(0)"><path class="d" d="M34.133,234.667V348.224h75.7V234.667h-75.7Zm68.134,105.986H41.7V242.237h60.564Z" transform="translate(-34.133 -234.667)"/></g></g><g transform="translate(15.141 52.993)"><g transform="translate(0)"><path class="d" d="M34.133,140.8v49.208H64.415V140.8Zm22.711,41.638H41.7V148.371H56.844Z" transform="translate(-34.133 -140.8)"/></g></g><g transform="translate(37.852 52.993)"><g transform="translate(0)"><path class="d" d="M85.333,140.8v49.208h30.282V140.8Zm22.711,41.638H92.9V148.371h15.141Z" transform="translate(-85.333 -140.8)"/></g></g><g transform="translate(60.564 52.993)"><g transform="translate(0)"><path class="d" d="M136.533,140.8v49.208h30.282V140.8Zm22.711,41.638H144.1V148.371h15.141Z" transform="translate(-136.533 -140.8)"/></g></g><g transform="translate(15.141 94.631)"><g transform="translate(0)"><path class="d" d="M34.133,234.667v15.141a15.141,15.141,0,0,0,30.282,0V234.667H34.133Zm22.711,15.141a7.571,7.571,0,1,1-15.141,0v-7.571H56.844v7.571Z" transform="translate(-34.133 -234.667)"/></g></g><g transform="translate(37.852 94.631)"><g transform="translate(0)"><path class="d" d="M85.333,234.667v15.141a15.141,15.141,0,0,0,30.282,0V234.667H85.333Zm22.711,15.141a7.57,7.57,0,1,1-15.141,0v-7.571h15.141Z" transform="translate(-85.333 -234.667)"/></g></g><g transform="translate(60.564 94.631)"><g transform="translate(0)"><path class="d" d="M136.533,234.667v15.141a15.141,15.141,0,0,0,30.282,0V234.667H136.533Zm22.711,15.141a7.571,7.571,0,1,1-15.141,0v-7.571h15.141v7.571Z" transform="translate(-136.533 -234.667)"/></g></g><g transform="translate(68.134 140.054)"><g transform="translate(0 0)"><rect class="d" width="7.571" height="18.926"/></g></g><g transform="translate(193.047 3.786)"><g transform="translate(0)"><rect class="d" width="7.571" height="30.282"/></g></g><g transform="translate(185.476 0)"><rect class="d" width="22.711" height="7.571"/></g></g></g></svg>