<svg xmlns="http://www.w3.org/2000/svg" xmlns:xlink="http://www.w3.org/1999/xlink" width="176" height="176" viewBox="0 0 176 176"><defs><style>.a{fill:#34a1fe;}.b{clip-path:url(#a);}.c{opacity:0.15;}.d{fill:#fff;}</style><clipPath id="a"><rect class="a" width="176" height="176" rx="4" transform="translate(708 3178)"/></clipPath></defs><g class="b" transform="translate(-708 -3178)"><g class="c" transform="translate(684 3162.172)"><path class="d" d="M230.587,190.619V159.8h-6.848v13.7H213.467V94.75a3.424,3.424,0,0,0-3.424-3.424H168.956a3.424,3.424,0,0,0-3.424,3.424V173.5h-17.12v6.848h75.326V187.2H148.413v6.848h78.75A3.424,3.424,0,0,0,230.587,190.619ZM206.619,173.5H172.38V98.174h34.239ZM52.543,125.565H45.7v-13.7h6.848Zm99.293,27.391V98.174H131.293V91.326h23.967a3.424,3.424,0,0,1,3.424,3.424v61.63a3.424,3.424,0,0,1-3.424,3.424h-6.848v-6.848ZM220.212,18.594A3.424,3.424,0,0,0,216.891,16H45.7a3.424,3.424,0,0,0-3.322,2.594L32.1,59.68a3.481,3.481,0,0,0-.1.8v71.932h6.848V81.045A17.029,17.029,0,0,0,49.12,84.478V77.63A10.283,10.283,0,0,1,38.848,67.359V63.935h13.7V57.087H39.809l8.56-34.239H65.621L61.15,49.676,67.9,50.8l4.659-27.954H89.909L87.652,49.955l6.824.568,2.305-27.675h17.393V46.815h6.848V22.848h20.543V57.087h-13.7v6.848h13.7v3.424a10.275,10.275,0,0,1-15.405,8.9l-3.429,5.927a17.113,17.113,0,0,0,22.258-4.567,17.1,17.1,0,0,0,27.391,0,17.1,17.1,0,0,0,27.391,0,17.094,17.094,0,0,0,23.967,3.426v71.911h6.848V60.481a3.445,3.445,0,0,0-.1-.8Zm-71.8,4.254h17.393l2.853,34.239H148.413Zm20.543,44.511a10.272,10.272,0,0,1-20.543,0V63.935h20.543Zm3.721-44.511h17.346l5.706,34.239h-20.2Zm23.67,44.511a10.272,10.272,0,0,1-20.543,0V63.935h20.543Zm3.471-27.391-2.853-17.12h17.252l8.56,34.239H202.672Zm23.92,27.391a10.272,10.272,0,0,1-20.543,0V63.935h20.543Zm-23.967,78.75h-6.848V125.565h6.848Zm-160.65,4.105-6.711-1.363A20.68,20.68,0,0,0,32,152.956v51.359a17.139,17.139,0,0,0,17.12,17.12h75.326a17.139,17.139,0,0,0,17.12-17.12V152.956a20.567,20.567,0,0,0-20.543-20.543H103.9v-1.765a30.954,30.954,0,0,0,13.5-22.2h.2a10.272,10.272,0,0,0,0-20.543s-.018-11.057-.043-11.448a13.638,13.638,0,0,0,3.467-9.1V57.087a3.424,3.424,0,0,0-3.424-3.424H73.087a17.139,17.139,0,0,0-17.12,17.12V87.9a10.272,10.272,0,1,0,0,20.543h.2a30.956,30.956,0,0,0,13.5,22.2v1.765H52.543a20.385,20.385,0,0,0-16.435,8.214l5.478,4.112a13.6,13.6,0,0,1,10.956-5.478h17.12v13.7a3.424,3.424,0,0,0,4.254,3.322l9.441-2.36V181.04l-20.543-3.573V156.38H55.967v6.848H38.848V152.956a13.8,13.8,0,0,1,.274-2.743ZM117.6,94.75a3.424,3.424,0,0,1,0,6.848ZM55.967,101.6a3.424,3.424,0,0,1,0-6.848Zm68.478,112.989H118l-16.264-3.827,12.84-3.021H134.13a10.288,10.288,0,0,1-9.685,6.848Zm10.272-37.663H117.6v-6.848h17.12Zm-13.7-37.663a13.711,13.711,0,0,1,13.7,13.7v10.272H117.6V156.38H110.75v21.087L90.206,181.04V153.917l9.441,2.36a3.424,3.424,0,0,0,4.254-3.322v-13.7ZM93.48,147.677l3.575-3.575v4.469Zm17.27-65.289-.939-1.565c.316-.058.63-.123.939-.2ZM62.815,77.63V70.782A10.283,10.283,0,0,1,73.087,60.511h41.087v6.848a6.856,6.856,0,0,1-6.848,6.848H69.663a3.424,3.424,0,0,0-2.936,1.662l-3.912,6.52Zm0,27.391V95.7L71.6,81.054h30.362L110.75,95.7v9.323a23.967,23.967,0,1,1-47.935,0Zm13.7,43.55V144.1l3.575,3.575Zm0-14.152v-.342a30.852,30.852,0,0,0,20.543,0v.342L86.782,144.69Zm37.958,49.353h20.248v17.12H114.174a3.41,3.41,0,0,0-.784.091l-57.819,13.6H49.12a10.283,10.283,0,0,1-10.272-10.272v-7.392Zm-55.374,0,7.7,1.34-27.951,4.862v-6.2Zm-3.128-13.7v6.848H38.848v-6.848Zm20.543-6.848v6.848H69.663v-6.848Zm10.272-44.813a21.913,21.913,0,0,1-12.171-3.7l3.8-5.7a15.054,15.054,0,0,0,16.745,0l3.8,5.7A21.913,21.913,0,0,1,86.782,118.415ZM74.8,101.6a5.136,5.136,0,1,1,5.136-5.136A5.136,5.136,0,0,1,74.8,101.6ZM93.63,96.462a5.136,5.136,0,1,1,5.136,5.136A5.136,5.136,0,0,1,93.63,96.462Z" transform="translate(0 0)"/></g></g></svg>