<svg xmlns="http://www.w3.org/2000/svg" xmlns:xlink="http://www.w3.org/1999/xlink" width="176" height="176" viewBox="0 0 176 176"><defs><style>.a{fill:#34a1fe;}.b{clip-path:url(#a);}.c{opacity:0.15;}.d{fill:#fff;}</style><clipPath id="a"><rect class="a" width="176" height="176" rx="4" transform="translate(1108 2896)"/></clipPath></defs><g class="b" transform="translate(-1108 -2896)"><g class="c" transform="translate(1091.951 2896.3)"><g transform="translate(54.982 30.926)"><path class="d" d="M201.83,95.064a58.558,58.558,0,0,0-90.6,71.423,58.706,58.706,0,0,0,22.638,23.087,14.18,14.18,0,0,1,7.465,12.326v23.431a9.091,9.091,0,0,0,9.08,9.08h.2V237.7a9.091,9.091,0,0,0,9.08,9.08h6.186a9.091,9.091,0,0,0,9.08-9.08v-3.292h.2a9.091,9.091,0,0,0,9.08-9.08V202.392a15.057,15.057,0,0,1,7.831-13.02,58.5,58.5,0,0,0,9.763-94.308ZM169.17,237.7h0A3.3,3.3,0,0,1,165.877,241h-6.186A3.3,3.3,0,0,1,156.4,237.7v-3.292H169.17Zm9.279-21.453h-.2a2.894,2.894,0,0,0,0,5.788h.2v3.292a3.3,3.3,0,0,1-3.292,3.292H150.411a3.3,3.3,0,0,1-3.292-3.292v-3.292h18.758a2.894,2.894,0,1,0,0-5.788H147.119v-6.584h31.33Zm10.723-31.891a20.783,20.783,0,0,0-10.723,18.031v1.486h-31.33V201.9a20.159,20.159,0,0,0-10.393-17.358,53.186,53.186,0,0,1-7.475-5.14,9.5,9.5,0,0,1,1.845-1.089l8.018-3.563a43.1,43.1,0,0,0,47.336,0l8.022,3.565a9.443,9.443,0,0,1,1.85,1.086A53,53,0,0,1,189.171,184.361ZM149.446,129.92a2.894,2.894,0,0,0-4.089-.164,10.4,10.4,0,0,1-4.3,2.566.471.471,0,0,1-.077.014.587.587,0,0,1-.049-.262v-5.724a18.779,18.779,0,0,1,18.758-18.758h6.186a18.779,18.779,0,0,1,18.758,18.758v.631a.186.186,0,0,1-.13.19c-17.33,3.424-26.022-3.028-28.954-5.96a2.894,2.894,0,0,0-4.092,4.092c8.987,8.987,22.1,9.149,30.084,8.19v5.23a18.758,18.758,0,1,1-37.516,0v-1.3a17.1,17.1,0,0,0,5.256-3.412A2.894,2.894,0,0,0,149.446,129.92Zm3.86,32.621v-1.178a24.525,24.525,0,0,0,18.957,0v1.177a9.088,9.088,0,0,0,5.393,8.3l2.3,1.021a37.349,37.349,0,0,1-34.338,0l2.3-1.021A9.088,9.088,0,0,0,153.306,162.541Zm54.981,2.9a52.9,52.9,0,0,1-7.668,10,15.343,15.343,0,0,0-3.8-2.421l-16.817-7.474a3.3,3.3,0,0,1-1.955-3.009v-4.618a24.508,24.508,0,0,0,9.28-19.2v-6.5a6,6,0,0,0,3.093-5.241v-.631A24.574,24.574,0,0,0,165.878,101.8h-6.186a24.574,24.574,0,0,0-24.546,24.546v5.724a6.069,6.069,0,0,0,2.309,4.863,5.684,5.684,0,0,0,.784.508v1.278a24.507,24.507,0,0,0,9.279,19.2v4.618a3.3,3.3,0,0,1-1.955,3.009l-16.817,7.474a15.316,15.316,0,0,0-3.8,2.421,52.8,52.8,0,0,1,31.776-89.166,55.494,55.494,0,0,1,6.139-.343A52.175,52.175,0,0,1,197.97,99.378a52.74,52.74,0,0,1,10.317,66.063Z" transform="translate(-104.215 -80.147)"/></g><g transform="translate(110.657)"><path class="d" d="M251.395,0A2.894,2.894,0,0,0,248.5,2.894V21.453a2.894,2.894,0,1,0,5.788,0V2.894A2.894,2.894,0,0,0,251.395,0Z" transform="translate(-248.501)"/></g><g transform="translate(178.707 86.608)"><path class="d" d="M446.309,224.452H427.75a2.894,2.894,0,0,0,0,5.788h18.559a2.894,2.894,0,0,0,0-5.788Z" transform="translate(-424.856 -224.452)"/></g><g transform="translate(24.049 86.608)"><path class="d" d="M45.5,224.452H26.943a2.894,2.894,0,1,0,0,5.788H45.5a2.894,2.894,0,1,0,0-5.788Z" transform="translate(-24.049 -224.452)"/></g><g transform="translate(158.775 25.367)"><path class="d" d="M391.266,66.588a2.894,2.894,0,0,0-4.092,0L374.05,79.711a2.894,2.894,0,1,0,4.092,4.092L391.266,70.68A2.894,2.894,0,0,0,391.266,66.588Z" transform="translate(-373.202 -65.74)"/></g><g transform="translate(49.416 134.726)"><path class="d" d="M107.853,350a2.894,2.894,0,0,0-4.092,0L90.637,363.124a2.894,2.894,0,1,0,4.092,4.092l13.123-13.123A2.894,2.894,0,0,0,107.853,350Z" transform="translate(-89.789 -349.153)"/></g><g transform="translate(158.776 134.726)"><path class="d" d="M391.267,363.124,378.143,350a2.894,2.894,0,1,0-4.093,4.092l13.123,13.123a2.894,2.894,0,0,0,4.092-4.092Z" transform="translate(-373.203 -349.153)"/></g><g transform="translate(49.416 25.367)"><path class="d" d="M107.853,79.711,94.729,66.588a2.894,2.894,0,1,0-4.092,4.092L103.76,83.8a2.894,2.894,0,0,0,4.092-4.092Z" transform="translate(-89.789 -65.74)"/></g></g></g></svg>