<svg xmlns="http://www.w3.org/2000/svg" width="16" height="13" viewBox="0 0 16 13"><defs><style>.a{fill:#fff;}</style></defs><path class="a" d="M14.368,5.916c0-.145-.005-.285-.012-.424A6.548,6.548,0,0,0,16,3.789h0a6.85,6.85,0,0,1-1.89.518,3.263,3.263,0,0,0,1.443-1.813,6.563,6.563,0,0,1-2.08.794A3.28,3.28,0,0,0,7.8,5.531a3.378,3.378,0,0,0,.076.748A9.287,9.287,0,0,1,1.114,2.847,3.28,3.28,0,0,0,2.122,7.231a3.242,3.242,0,0,1-1.482-.4v.036a3.3,3.3,0,0,0,2.628,3.223,3.468,3.468,0,0,1-1.481.052,3.312,3.312,0,0,0,3.065,2.285,6.594,6.594,0,0,1-4.067,1.4A6.2,6.2,0,0,1,0,13.778,9.237,9.237,0,0,0,5.032,15.25a9.272,9.272,0,0,0,9.336-9.334Z" transform="translate(0 -2.25)"/></svg>