<svg xmlns="http://www.w3.org/2000/svg" width="45" height="45" viewBox="0 0 45 45"><defs><style>.a{fill:#02b7e3;}.b{fill:#fff;}</style></defs><path class="a" d="M22.5,45A22.5,22.5,0,1,0,0,22.5,22.5,22.5,0,0,0,22.5,45" transform="translate(0 0)"/><path class="b" d="M34.271,104.317l3.832-3.85a.688.688,0,0,0-.489-1.17.676.676,0,0,0-.488.2l-3.83,3.833-3.845-3.84a.688.688,0,1,0-.966.979l3.832,3.837-3.83,3.84a.688.688,0,0,0,.479,1.181.68.68,0,0,0,.485-.2l3.84-3.842,3.825,3.827a.687.687,0,1,0,.984-.958l-3.83-3.846v0Zm22.781,0a1.248,1.248,0,1,0,1.249-1.25,1.251,1.251,0,0,0-1.249,1.25Zm-2.365,0a3.613,3.613,0,1,1,3.614,3.62,3.621,3.621,0,0,1-3.614-3.62Zm-1.422,0A5.036,5.036,0,1,0,58.3,99.273a5.047,5.047,0,0,0-5.036,5.043h0Zm-.357-4.957H52.7a2.851,2.851,0,0,0-1.758.6.7.7,0,0,0-.674-.54.68.68,0,0,0-.68.684l0,8.495a.686.686,0,0,0,1.372,0v-5.224c0-1.74.16-2.444,1.648-2.63a2.372,2.372,0,0,1,.29-.014.678.678,0,0,0,.7-.675.69.69,0,0,0-.69-.688h0Zm-13.186,4.128c0-.02,0-.04,0-.058a3.636,3.636,0,0,1,7.065.055H39.721Zm8.473-.13a5.011,5.011,0,0,0-7.84-3.146,5.046,5.046,0,0,0,2.3,9.124,4.749,4.749,0,0,0,1.81-.12,4.968,4.968,0,0,0,1.506-.644,5.439,5.439,0,0,0,1.29-1.222.291.291,0,0,1,.022-.027.752.752,0,0,0-.077-1.056.687.687,0,0,0-1.014.156c-.072.1-.153.21-.24.315a3.964,3.964,0,0,1-.994.8,3.626,3.626,0,0,1-1.69.427,3.628,3.628,0,0,1-3.6-3l-.01-.1h7.17a1.27,1.27,0,0,0,1.364-1.51l0,0Z" transform="translate(-23.308 -81.823)"/></svg>